<svg xmlns="http://www.w3.org/2000/svg" width="35" height="35" viewBox="0 0 35 35" fill="none">
    <g clip-path="url(#clip0_5665_554)">
        <path d="M34.2692 0H0V6.40435H34.2692V0Z" fill="white"/>
        <path d="M34.2698 8.53918H21.249V14.9435H34.2698V8.53918Z" fill="white"/>
        <path d="M8.31917 8.53918H0V14.9435H8.31917C11.4274 14.9435 13.9611 17.5 13.9611 20.6363V34.5783H20.3082V20.6363C20.3082 13.9684 14.9275 8.53918 8.31917 8.53918Z" fill="white"/>
        <path d="M27.766 24.247C24.8275 24.247 22.4375 26.6585 22.4375 29.6235C22.4375 32.5885 24.8275 35 27.766 35C30.7044 35 33.0944 32.5885 33.0944 29.6235C33.0944 26.6585 30.7044 24.247 27.766 24.247Z" fill="white"/>
    </g>
    <defs>
        <clipPath id="clip0_5665_554">
            <rect width="35" height="35" fill="black"/>
        </clipPath>
    </defs>
</svg>