<svg width="26" height="26" viewBox="0 0 26 26" fill="none" xmlns="http://www.w3.org/2000/svg">
<g clip-path="url(#clip0_2323_254912)">
<rect width="26" height="26" fill="white" fill-opacity="0.01"/>
<path d="M24.538 22.9422L17.002 15.4063C18.1714 13.8945 18.804 12.046 18.804 10.1018C18.804 7.77461 17.8958 5.59247 16.2534 3.94715C14.6109 2.30184 12.423 1.39648 10.0987 1.39648C7.77434 1.39648 5.58639 2.30474 3.94398 3.94715C2.29867 5.58956 1.39331 7.77461 1.39331 10.1018C1.39331 12.4262 2.30157 14.6141 3.94398 16.2565C5.58639 17.9018 7.77144 18.8072 10.0987 18.8072C12.0429 18.8072 13.8884 18.1746 15.4002 17.0081L22.9362 24.5411C22.9583 24.5632 22.9845 24.5808 23.0134 24.5927C23.0423 24.6047 23.0732 24.6109 23.1045 24.6109C23.1357 24.6109 23.1667 24.6047 23.1956 24.5927C23.2244 24.5808 23.2507 24.5632 23.2728 24.5411L24.538 23.2789C24.5601 23.2568 24.5776 23.2305 24.5896 23.2016C24.6015 23.1728 24.6077 23.1418 24.6077 23.1105C24.6077 23.0793 24.6015 23.0483 24.5896 23.0195C24.5776 22.9906 24.5601 22.9643 24.538 22.9422ZM14.6951 14.6983C13.4647 15.9257 11.8339 16.6018 10.0987 16.6018C8.3634 16.6018 6.7326 15.9257 5.50224 14.6983C4.27478 13.4679 3.59867 11.8371 3.59867 10.1018C3.59867 8.36657 4.27478 6.73287 5.50224 5.50541C6.7326 4.27796 8.3634 3.60184 10.0987 3.60184C11.8339 3.60184 13.4676 4.27506 14.6951 5.50541C15.9226 6.73577 16.5987 8.36657 16.5987 10.1018C16.5987 11.8371 15.9226 13.4708 14.6951 14.6983Z" fill="#1D232F"/>
</g>
<defs>
<clipPath id="clip0_2323_254912">
<rect width="26" height="26" fill="white"/>
</clipPath>
</defs>
</svg>
