<svg width="126" height="26" viewBox="0 0 126 26" fill="none" xmlns="http://www.w3.org/2000/svg">
<path d="M22.4375 18.8311C24.1529 18.8312 25.5439 20.222 25.5439 21.9375C25.5438 23.6529 24.1529 25.0438 22.4375 25.0439C20.722 25.0439 19.3312 23.6529 19.3311 21.9375C19.3311 20.2219 20.7219 18.8311 22.4375 18.8311ZM25.3486 7.76562H16.8057V24.8486H15.2529V7.76562H13.7021V24.8486H12.1484V7.76562H10.5957V24.8486H9.04199V7.76562H0.5V6.21289H25.3486V7.76562ZM75.624 10.5234C76.302 10.5218 76.9604 10.7533 77.4883 11.1787V10.6709H79.0596V18.9658C79.0643 19.7715 78.7469 20.546 78.1787 21.1172C77.6105 21.6883 76.8378 22.0093 76.0322 22.0088H75.4111C74.0196 22.0081 72.806 21.0622 72.4658 19.7129L73.9717 19.2705C74.1234 19.945 74.7198 20.4262 75.4111 20.4316H76.0322C76.8387 20.4229 77.4883 19.7665 77.4883 18.96V17.9844C76.9652 18.4202 76.3049 18.6577 75.624 18.6553H75.4248C73.7453 18.6518 72.3852 17.2908 72.3828 15.6113V13.5664C72.385 11.8871 73.7455 10.5258 75.4248 10.5234H75.624ZM107.981 10.5234C108.789 10.5219 109.564 10.8422 110.135 11.4131C110.706 11.984 111.025 12.7591 111.023 13.5664V16.1289C111.025 16.9363 110.706 17.7113 110.135 18.2822C109.564 18.8531 108.789 19.1725 107.981 19.1709H107.782C107.101 19.174 106.439 18.9365 105.916 18.5V21.8711H104.346V10.6709H105.916V11.1943C106.439 10.7579 107.101 10.5204 107.782 10.5234H107.981ZM59.0791 10.5234C59.8865 10.5218 60.6615 10.8421 61.2324 11.4131C61.8033 11.984 62.1237 12.7591 62.1221 13.5664V16.1289C62.1197 17.8082 60.7585 19.1687 59.0791 19.1709H58.4814C56.812 19.1522 55.4658 17.7985 55.457 16.1289V13.5664C55.4592 11.887 56.8205 10.5256 58.5 10.5234H59.0791ZM116.376 10.5234C117.184 10.5218 117.959 10.8422 118.53 11.4131C119.101 11.9839 119.422 12.7589 119.421 13.5664V16.1289C119.417 17.8086 118.056 19.1687 116.376 19.1709H115.779C114.106 19.1578 112.753 17.8025 112.744 16.1289V13.5664C112.747 11.8859 114.11 10.5245 115.791 10.5234H116.376ZM99.5664 7.67773C100.955 7.68121 102.166 8.62289 102.512 9.96777L100.99 10.4102C100.856 9.73136 100.258 9.24359 99.5664 9.24902H98.7979C98.4071 9.24743 98.0322 9.40241 97.7559 9.67871C97.4796 9.95501 97.3246 10.33 97.3262 10.7207C97.3262 11.3598 97.5552 11.85 98.8135 12.3418L100.254 12.8975C101.711 13.4949 102.627 14.6 102.627 16.1211C102.625 17.8004 101.263 19.1609 99.584 19.1631H98.4873C97.0903 19.1587 95.8729 18.2108 95.5264 16.8574L97.0234 16.4131C97.1706 17.0997 97.7773 17.5905 98.4795 17.5918H99.5762C100.385 17.5876 101.043 16.9379 101.056 16.1289C101.056 15.2131 100.5 14.6734 99.6484 14.3369L98.208 13.7969C96.8682 13.2732 95.7549 12.3911 95.7549 10.7207C95.7533 9.9133 96.0736 9.13831 96.6445 8.56738C97.2155 7.99645 97.9904 7.67615 98.7979 7.67773H99.5664ZM65.5312 16.1289C65.5297 16.5202 65.6843 16.8962 65.9609 17.1729C66.2375 17.4492 66.6129 17.604 67.0039 17.6025H67.6016C67.9925 17.6041 68.3682 17.4494 68.6445 17.1729C68.9209 16.8961 69.0753 16.52 69.0732 16.1289V10.6709H70.6445V16.1289C70.6434 16.9341 70.322 17.7057 69.752 18.2744C69.1817 18.8431 68.4089 19.1622 67.6035 19.1611H67.0059C66.2 19.1631 65.4264 18.845 64.8555 18.2764C64.2844 17.7076 63.963 16.9349 63.9619 16.1289V10.6709H65.5312V16.1289ZM92.1689 10.6709H94.0293V12.2422H92.1689V16.7695C92.1684 16.9876 92.2551 17.1973 92.4092 17.3516C92.5634 17.5058 92.7731 17.5922 92.9912 17.5918H94.0254V19.1592H92.9873C91.6678 19.159 90.5977 18.0891 90.5977 16.7695V12.2422H89.1367V10.6709H90.5977V8.41309H92.1689V10.6709ZM123.64 10.6709H125.5V12.2422H123.636V16.7695C123.636 17.2237 124.005 17.5918 124.459 17.5918H125.496V19.1592H124.459C123.139 19.1592 122.069 18.0892 122.069 16.7695V12.2422H120.609V10.6709H122.069V8.41309H123.64V10.6709ZM45.3018 9.39453H42.1504V19.0137H40.5791V9.39453H37.4326V7.82324H45.3018V9.39453ZM48.5234 11.1943C49.0467 10.7576 49.708 10.52 50.3896 10.5234H50.5889C51.3957 10.523 52.1699 10.8433 52.7402 11.4141C53.3106 11.9848 53.63 12.7595 53.6289 13.5664V19.0137H52.0586V13.5664C52.0602 13.1753 51.9047 12.7998 51.6279 12.5234C51.3513 12.2472 50.9759 12.0927 50.585 12.0947H49.9971C49.1846 12.0959 48.5256 12.7539 48.5234 13.5664V19.0137H46.9531V7.82324H48.5234V11.1943ZM82.6572 11.1943C83.1821 10.7564 83.8457 10.5186 84.5293 10.5234H84.7275C85.5348 10.5224 86.3101 10.8423 86.8809 11.4131C87.4517 11.9839 87.7716 12.7591 87.7705 13.5664V19.0137H86.1992V13.5664C86.2008 13.1754 86.0462 12.7998 85.7695 12.5234C85.4928 12.2471 85.1167 12.0926 84.7256 12.0947H84.1309C83.3183 12.0958 82.6594 12.7539 82.6572 13.5664V19.0137H81.0859V7.82324H82.6572V11.1943ZM58.4902 12.0947C57.6777 12.0958 57.0188 12.7539 57.0166 13.5664V16.1289C57.0189 16.9417 57.6774 17.6004 58.4902 17.6025H59.0869C59.478 17.6041 59.8535 17.4486 60.1299 17.1719C60.4062 16.8952 60.5607 16.5199 60.5586 16.1289V13.5664C60.5607 13.1755 60.4063 12.7999 60.1299 12.5234C59.8535 12.247 59.4778 12.0926 59.0869 12.0947H58.4902ZM107.384 12.0947C106.574 12.1023 105.919 12.7566 105.91 13.5664V16.1289C105.912 16.9416 106.571 17.6003 107.384 17.6025H107.981C108.372 17.6035 108.747 17.4483 109.023 17.1719C109.3 16.8953 109.455 16.5198 109.453 16.1289V13.5664C109.45 12.7551 108.793 12.0981 107.981 12.0947H107.384ZM115.789 12.0947C114.977 12.0958 114.318 12.7539 114.315 13.5664V16.1289C114.318 16.9417 114.976 17.6004 115.789 17.6025H116.387C116.778 17.604 117.153 17.4492 117.43 17.1729C117.706 16.8962 117.861 16.5201 117.859 16.1289V13.5664C117.861 13.1753 117.706 12.7998 117.43 12.5234C117.153 12.2472 116.778 12.0927 116.387 12.0947H115.789ZM75.4189 12.0947C74.6066 12.096 73.9485 12.754 73.9463 13.5664V15.6113C73.954 16.4217 74.6086 17.0762 75.4189 17.084H76.0166C76.829 17.0818 77.487 16.4237 77.4883 15.6113V13.5664C77.4904 13.1756 77.3359 12.7998 77.0596 12.5234C76.7831 12.247 76.4075 12.0926 76.0166 12.0947H75.4189ZM25.3486 4.65918H0.5V3.10645H25.3486V4.65918ZM25.3486 1.55273H0.5V0H25.3486V1.55273Z" fill="black"/>
</svg>
