<svg width="26" height="26" viewBox="0 0 26 26" fill="none" xmlns="http://www.w3.org/2000/svg">
  <g clip-path="url(#clip0_2323_254915)">
    <rect width="26" height="26" fill="white" fill-opacity="0.01" />
    <path
      d="M13 1.39307C6.59013 1.39307 1.39282 6.59037 1.39282 13.0002C1.39282 19.41 6.59013 24.6074 13 24.6074C19.4098 24.6074 24.6071 19.41 24.6071 13.0002C24.6071 6.59037 19.4098 1.39307 13 1.39307ZM13 22.6383C7.6783 22.6383 3.36189 18.3219 3.36189 13.0002C3.36189 7.67854 7.6783 3.36214 13 3.36214C18.3216 3.36214 22.638 7.67854 22.638 13.0002C22.638 18.3219 18.3216 22.6383 13 22.6383Z"
      fill="#1D232F"
    />
    <path
      d="M15.891 7.93941C15.1137 7.25801 14.0877 6.88492 12.9996 6.88492C11.9114 6.88492 10.8854 7.2606 10.1081 7.93941C9.29978 8.64672 8.85415 9.59757 8.85415 10.6158V10.8127C8.85415 10.9267 8.94742 11.02 9.06142 11.02H10.305C10.419 11.02 10.5123 10.9267 10.5123 10.8127V10.6158C10.5123 9.47321 11.629 8.54309 12.9996 8.54309C14.3701 8.54309 15.4868 9.47321 15.4868 10.6158C15.4868 11.4216 14.9168 12.16 14.0333 12.4994C13.4841 12.7092 13.0177 13.0771 12.6835 13.559C12.3441 14.0513 12.1679 14.642 12.1679 15.2405V15.7975C12.1679 15.9115 12.2612 16.0048 12.3752 16.0048H13.6188C13.7328 16.0048 13.8261 15.9115 13.8261 15.7975V15.2094C13.8274 14.9579 13.9045 14.7126 14.0473 14.5056C14.1901 14.2985 14.392 14.1393 14.6266 14.0487C16.1553 13.4606 17.1424 12.1133 17.1424 10.6158C17.145 9.59757 16.6993 8.64672 15.891 7.93941ZM11.9632 18.6993C11.9632 18.9742 12.0724 19.2378 12.2667 19.4321C12.4611 19.6265 12.7247 19.7357 12.9996 19.7357C13.2744 19.7357 13.538 19.6265 13.7324 19.4321C13.9267 19.2378 14.0359 18.9742 14.0359 18.6993C14.0359 18.4245 13.9267 18.1609 13.7324 17.9665C13.538 17.7722 13.2744 17.663 12.9996 17.663C12.7247 17.663 12.4611 17.7722 12.2667 17.9665C12.0724 18.1609 11.9632 18.4245 11.9632 18.6993Z"
      fill="#1D232F"
    />
  </g>
  <defs>
    <clipPath id="clip0_2323_254915">
      <rect width="26" height="26" fill="white" />
    </clipPath>
  </defs>
</svg>
